<?xml version="1.0" encoding="UTF-8" standalone="no"?>
<!-- Created with Inkscape (http://www.inkscape.org/) -->

<svg
   xmlns:dc="http://purl.org/dc/elements/1.1/"
   xmlns:cc="http://creativecommons.org/ns#"
   xmlns:rdf="http://www.w3.org/1999/02/22-rdf-syntax-ns#"
   xmlns:svg="http://www.w3.org/2000/svg"
   xmlns="http://www.w3.org/2000/svg"
   xmlns:sodipodi="http://sodipodi.sourceforge.net/DTD/sodipodi-0.dtd"
   xmlns:inkscape="http://www.inkscape.org/namespaces/inkscape"
   width="210mm"
   height="297mm"
   viewBox="0 0 210 297"
   version="1.1"
   id="svg8"
   inkscape:version="0.92.4 (5da689c313, 2019-01-14)"
   sodipodi:docname="camera.svg">
  <defs
     id="defs2" />
  <sodipodi:namedview
     id="base"
     pagecolor="#ffffff"
     bordercolor="#666666"
     borderopacity="1.0"
     inkscape:pageopacity="0.0"
     inkscape:pageshadow="2"
     inkscape:zoom="3.959798"
     inkscape:cx="287.31775"
     inkscape:cy="604.42336"
     inkscape:document-units="mm"
     inkscape:current-layer="layer1"
     showgrid="false"
     inkscape:window-width="2560"
     inkscape:window-height="1377"
     inkscape:window-x="1912"
     inkscape:window-y="-8"
     inkscape:window-maximized="1" />
  <metadata
     id="metadata5">
    <rdf:RDF>
      <cc:Work
         rdf:about="">
        <dc:format>image/svg+xml</dc:format>
        <dc:type
           rdf:resource="http://purl.org/dc/dcmitype/StillImage" />
        <dc:title></dc:title>
      </cc:Work>
    </rdf:RDF>
  </metadata>
  <g
     inkscape:label="Layer 1"
     inkscape:groupmode="layer"
     id="layer1">
    <path
       style="opacity:1;fill:#ffffff;fill-opacity:1;stroke-width:10.21984265;stroke:#808080;stroke-miterlimit:4;stroke-dasharray:none"
       d="m 264.78711,429.30273 a 37.754452,37.754452 0 0 0 -37.75586,37.75391 37.754452,37.754452 0 0 0 0.5332,6.2793 37.754452,37.754452 0 0 0 -19.97851,-5.77344 37.754452,37.754452 0 0 0 -37.75391,37.75391 37.754452,37.754452 0 0 0 35.73438,37.65429 v 7.04492 c 0,8.95397 7.20814,16.16211 16.16211,16.16211 h 93.43945 c 8.95397,0 16.16211,-7.20814 16.16211,-16.16211 v -17.59765 l 17.92969,8.00195 h 16.66796 v -40.40625 h -15.91015 l -18.6875,10.61524 v -16.17188 c 0,-8.95397 -7.20814,-16.16211 -16.16211,-16.16211 h -14.34375 a 37.754452,37.754452 0 0 0 1.7168,-11.23828 37.754452,37.754452 0 0 0 -37.75391,-37.75391 z"
       transform="scale(0.26458333)"
       id="path828"
       inkscape:connector-curvature="0"
       inkscape:export-xdpi="372.25"
       inkscape:export-ydpi="372.25" />
  </g>
</svg>
